<svg width="70" height="70" viewBox="0 0 70 70" fill="none" xmlns="http://www.w3.org/2000/svg">
<path d="M50.6175 51.8297L15.412 22.1581C14.2729 21.1981 12.5556 21.3446 11.5956 22.4836L1.12332 34.9091C0.163351 36.0481 0.309837 37.7654 1.44884 38.7254L36.6544 68.397C37.7934 69.3569 39.5107 69.2105 40.4707 68.0715L50.943 55.646C51.903 54.507 51.7565 52.7896 50.6175 51.8297ZM68.0714 31.1205L32.8658 1.44891C31.7268 0.488947 30.0095 0.635433 29.0495 1.77444L18.5772 14.1999C17.6172 15.3389 17.7637 17.0563 18.9027 18.0162L54.1083 47.6878C55.2473 48.6478 56.9646 48.5013 57.9246 47.3623L68.3969 34.9368C69.3569 33.7978 69.2104 32.0805 68.0714 31.1205Z" fill="#C06DF1"/>
</svg>
